;TYPE=PLATED
;Layer: PTH_Through
;EasyEDA Pro v2.2.40.8, 2025-10-27 13:57:16
;Gerber Generator version 0.3
M48
METRIC,LZ,0000.00000
;Hole size 1 = 0.30599 METRIC
T01C0.30599
;Hole size 2 = 0.50099 METRIC
T02C0.50099
;Hole size 3 = 0.60000 METRIC
T03C0.60000
;Hole size 4 = 0.88900 METRIC
T04C0.88900
;Hole size 5 = 1.10099 METRIC
T05C1.10099
%
G05
G90
T01
X33.03626Y70.8058
X31.74263Y69.0946
X29.30957Y90.27617
X45.15053Y80.27949
X42.31107Y84.63839
X50.16221Y83.56117
X24.22449Y76.76439
X28.24632Y76.76439
X20.38833Y66.54825
X28.39822Y59.96991
X50.31842Y62.96025
X37.80866Y84.79155
X26.52217Y79.32928
X28.95651Y75.00798
X27.71369Y83.9216
X33.02381Y87.25027
X26.36266Y80.58912
X27.13711Y77.6798
X42.76852Y78.28051
X23.368Y80.40446
X46.0535Y60.06821
X19.89607Y60.20435
X30.95904Y83.026
X26.83815Y73.87539
X44.54296Y85.46998
X46.0535Y62.43168
X17.3736Y69.19062
X22.24735Y75.61555
X57.91505Y78.99248
X22.00199Y71.00265
X20.45411Y71.00265
X36.93973Y76.60691
X40.66642Y71.94906
X49.78375Y58.69965
X29.30271Y69.95566
X31.86811Y72.05929
X36.10762Y77.39101
X39.64356Y77.39101
X42.98417Y77.39101
X50.04537Y80.94523
X51.31968Y87.91423
T02
X46.28515Y58.30037
X48.09033Y68.02222
T03
X21.39696Y90.10396
X20.51304Y89.22004
X20.51304Y53.90896
X21.39696Y53.02504
X56.58079Y53.02504
X57.46496Y53.90896
X57.33796Y89.22004
X56.45404Y90.10396
X43.30903Y87.61257G85X43.30903Y86.51256
X34.66897Y87.61257G85X34.66897Y86.51256
X43.30903Y91.61242G85X43.30903Y90.81241
X34.66897Y91.61242G85X34.66897Y90.81241
T04
X51.689Y70.35775
X51.689Y67.81775
X51.689Y65.27775
X51.689Y62.73775
X51.689Y60.19775
X51.689Y57.65775
X26.289Y70.35775
X26.289Y67.81775
X26.289Y65.27775
X26.289Y62.73775
X26.289Y60.19775
X26.289Y57.65775
T05
X58.801Y70.25107
X58.801Y72.75093
M30