G04 Layer: BottomSilkscreenLayer*
G04 EasyEDA Pro v2.2.40.8, 2025-10-27 13:57:15*
G04 Gerber Generator version 0.3*
G04 Scale: 100 percent, Rotated: No, Reflected: No*
G04 Dimensions in millimeters*
G04 Leading zeros omitted, absolute positions, 4 integers and 5 decimals*
G04 Generated by one-click*
%FSLAX45Y45*%
%MOMM*%
%ADD10C,0.254*%
%ADD11C,0.9718*%
G75*


G04 Text Start*
G36*
G01X3724333Y6857076D02*
G01X3726642Y6855229D01*
G01X3727681Y6854074D01*
G01X3728027Y6851534D01*
G01X3728027Y6848302D01*
G01X3608878Y6848302D01*
G01X3608416Y6850611D01*
G01X3605646Y6858924D01*
G01X3602874Y6866313D01*
G01X3601489Y6870469D01*
G01X3599642Y6875087D01*
G01X3597794Y6880629D01*
G01X3595947Y6885247D01*
G01X3595024Y6887094D01*
G01X3597794Y6887094D01*
G01X3600219Y6886517D01*
G01X3601951Y6884786D01*
G01X3604722Y6881553D01*
G01X3607031Y6879244D01*
G01X3610264Y6876473D01*
G01X3614882Y6874164D01*
G01X3619962Y6872778D01*
G01X3624118Y6871854D01*
G01X3637049Y6870931D01*
G01X3667067Y6870469D01*
G01X3688426Y6870816D01*
G01X3695238Y6871854D01*
G01X3693391Y6874164D01*
G01X3677227Y6890327D01*
G01X3674456Y6894022D01*
G01X3664296Y6904182D01*
G01X3661526Y6907876D01*
G01X3653674Y6915727D01*
G01X3649980Y6920346D01*
G01X3645362Y6924964D01*
G01X3641667Y6929582D01*
G01X3637049Y6935124D01*
G01X3635202Y6937433D01*
G01X3633816Y6939742D01*
G01X3631969Y6942051D01*
G01X3629660Y6945284D01*
G01X3624118Y6953596D01*
G01X3621809Y6957291D01*
G01X3619962Y6960524D01*
G01X3614420Y6971607D01*
G01X3612573Y6976226D01*
G01X3610726Y6981767D01*
G01X3609340Y6987309D01*
G01X3608416Y6991927D01*
G01X3607954Y6997469D01*
G01X3607493Y7001626D01*
G01X3607493Y7003934D01*
G01X3607954Y7008553D01*
G01X3608878Y7013633D01*
G01X3610264Y7017789D01*
G01X3611649Y7021484D01*
G01X3613496Y7025178D01*
G01X3615344Y7028411D01*
G01X3617653Y7031644D01*
G01X3620424Y7034876D01*
G01X3625042Y7039494D01*
G01X3627351Y7041342D01*
G01X3630584Y7043651D01*
G01X3634278Y7045960D01*
G01X3637511Y7047807D01*
G01X3641667Y7049654D01*
G01X3646747Y7051502D01*
G01X3652751Y7052887D01*
G01X3659216Y7053811D01*
G01X3667067Y7054273D01*
G01X3673071Y7053811D01*
G01X3682307Y7051964D01*
G01X3686002Y7050578D01*
G01X3690620Y7048731D01*
G01X3693853Y7046884D01*
G01X3700318Y7042266D01*
G01X3702627Y7040418D01*
G01X3704936Y7038109D01*
G01X3708631Y7033491D01*
G01X3710478Y7030720D01*
G01X3712787Y7027026D01*
G01X3715096Y7022407D01*
G01X3716944Y7018251D01*
G01X3718791Y7013633D01*
G01X3720176Y7008091D01*
G01X3721100Y7003934D01*
G01X3722024Y7000240D01*
G01X3722486Y6997931D01*
G01X3719714Y6997931D01*
G01X3717406Y6998508D01*
G01X3716020Y7000240D01*
G01X3714173Y7004858D01*
G01X3711864Y7009014D01*
G01X3709093Y7013171D01*
G01X3706322Y7016404D01*
G01X3701704Y7021022D01*
G01X3699394Y7022869D01*
G01X3696624Y7024716D01*
G01X3693391Y7026564D01*
G01X3689696Y7028411D01*
G01X3685078Y7029796D01*
G01X3680460Y7030720D01*
G01X3675842Y7031182D01*
G01X3672609Y7031644D01*
G01X3670300Y7031644D01*
G01X3662911Y7030720D01*
G01X3658754Y7029334D01*
G01X3654136Y7027026D01*
G01X3650442Y7024716D01*
G01X3647671Y7022407D01*
G01X3645362Y7020098D01*
G01X3642591Y7016866D01*
G01X3640282Y7013633D01*
G01X3638434Y7010400D01*
G01X3636587Y7006706D01*
G01X3635202Y7002549D01*
G01X3634278Y6998393D01*
G01X3633354Y6993774D01*
G01X3632893Y6985462D01*
G01X3633354Y6978996D01*
G01X3635202Y6969760D01*
G01X3636587Y6965604D01*
G01X3638434Y6960524D01*
G01X3640282Y6955906D01*
G01X3643976Y6948516D01*
G01X3646286Y6944360D01*
G01X3650904Y6936971D01*
G01X3653674Y6932814D01*
G01X3656907Y6928196D01*
G01X3659678Y6924502D01*
G01X3663373Y6919884D01*
G01X3665682Y6917574D01*
G01X3669376Y6912956D01*
G01X3674918Y6906491D01*
G01X3679536Y6901873D01*
G01X3684154Y6896331D01*
G01X3709554Y6870931D01*
G01X3715096Y6866313D01*
G01X3724333Y6857076D01*
G37*
G36*
G01X3529446Y6851073D02*
G01X3525751Y6849226D01*
G01X3521133Y6847378D01*
G01X3509587Y6845069D01*
G01X3505893Y6844607D01*
G01X3501274Y6845069D01*
G01X3496656Y6846454D01*
G01X3491576Y6847840D01*
G01X3488344Y6849226D01*
G01X3485573Y6850611D01*
G01X3482340Y6852458D01*
G01X3478184Y6855229D01*
G01X3473566Y6858462D01*
G01X3465714Y6866313D01*
G01X3462944Y6870007D01*
G01X3459711Y6874626D01*
G01X3457402Y6878782D01*
G01X3455554Y6882014D01*
G01X3453707Y6885709D01*
G01X3451860Y6890327D01*
G01X3450013Y6894484D01*
G01X3447242Y6902796D01*
G01X3445856Y6907876D01*
G01X3444009Y6917113D01*
G01X3443086Y6922654D01*
G01X3442624Y6926811D01*
G01X3442162Y6930044D01*
G01X3441238Y6941127D01*
G01X3440776Y6952673D01*
G01X3440795Y6953134D01*
G01X3470333Y6953134D01*
G01X3470794Y6928196D01*
G01X3471718Y6915266D01*
G01X3472642Y6906953D01*
G01X3473566Y6900487D01*
G01X3475413Y6890327D01*
G01X3476798Y6885709D01*
G01X3478646Y6879244D01*
G01X3480493Y6874626D01*
G01X3482340Y6870931D01*
G01X3484187Y6867698D01*
G01X3486034Y6865389D01*
G01X3488344Y6863080D01*
G01X3488344Y6863080D01*
G01X3492962Y6859386D01*
G01X3495733Y6857538D01*
G01X3499889Y6855691D01*
G01X3508202Y6854767D01*
G01X3515129Y6855691D01*
G01X3518362Y6857538D01*
G01X3521133Y6859386D01*
G01X3523904Y6862618D01*
G01X3527136Y6866774D01*
G01X3529446Y6870931D01*
G01X3531293Y6875549D01*
G01X3533140Y6879706D01*
G01X3535911Y6888942D01*
G01X3537296Y6894484D01*
G01X3538220Y6899564D01*
G01X3540067Y6910647D01*
G01X3540991Y6918960D01*
G01X3541914Y6931891D01*
G01X3542376Y6946207D01*
G01X3541914Y6960524D01*
G01X3540991Y6975302D01*
G01X3540067Y6984538D01*
G01X3538220Y6999316D01*
G01X3536373Y7008553D01*
G01X3534987Y7013171D01*
G01X3533140Y7019174D01*
G01X3531293Y7023793D01*
G01X3529446Y7027487D01*
G01X3527136Y7031182D01*
G01X3524827Y7034414D01*
G01X3520209Y7039033D01*
G01X3517900Y7040880D01*
G01X3515129Y7042266D01*
G01X3510511Y7043651D01*
G01X3505893Y7044574D01*
G01X3503122Y7044574D01*
G01X3499889Y7044113D01*
G01X3496656Y7043189D01*
G01X3492962Y7041342D01*
G01X3490191Y7039033D01*
G01X3488344Y7036724D01*
G01X3485573Y7033491D01*
G01X3483264Y7029796D01*
G01X3481416Y7026102D01*
G01X3479569Y7021946D01*
G01X3478184Y7018251D01*
G01X3477260Y7015018D01*
G01X3475874Y7010400D01*
G01X3474489Y7003934D01*
G01X3473566Y6999316D01*
G01X3472642Y6993774D01*
G01X3471718Y6987309D01*
G01X3471256Y6982229D01*
G01X3470794Y6978073D01*
G01X3470333Y6953134D01*
G01X3440795Y6953134D01*
G01X3441238Y6964218D01*
G01X3442162Y6974378D01*
G01X3443086Y6980844D01*
G01X3444933Y6990080D01*
G01X3446318Y6994698D01*
G01X3448166Y7000702D01*
G01X3450013Y7006244D01*
G01X3451860Y7010400D01*
G01X3456478Y7019636D01*
G01X3458326Y7022869D01*
G01X3460634Y7026102D01*
G01X3463867Y7030720D01*
G01X3467100Y7033953D01*
G01X3470794Y7038571D01*
G01X3477722Y7044113D01*
G01X3480954Y7046422D01*
G01X3484649Y7048731D01*
G01X3488344Y7050578D01*
G01X3493886Y7052426D01*
G01X3498966Y7053349D01*
G01X3502198Y7053811D01*
G01X3506354Y7054273D01*
G01X3510511Y7053811D01*
G01X3516976Y7052887D01*
G01X3520671Y7051502D01*
G01X3525289Y7049654D01*
G01X3528522Y7047807D01*
G01X3534064Y7044113D01*
G01X3536373Y7042266D01*
G01X3538682Y7039956D01*
G01X3543300Y7036262D01*
G01X3546071Y7032567D01*
G01X3549304Y7028411D01*
G01X3552074Y7024254D01*
G01X3554384Y7020560D01*
G01X3559926Y7009476D01*
G01X3561773Y7004858D01*
G01X3563620Y6999778D01*
G01X3565467Y6993774D01*
G01X3566853Y6988233D01*
G01X3568700Y6978996D01*
G01X3569624Y6973454D01*
G01X3570086Y6968374D01*
G01X3570547Y6965142D01*
G01X3571009Y6947131D01*
G01X3570547Y6929120D01*
G01X3569624Y6921731D01*
G01X3567776Y6911571D01*
G01X3566391Y6906953D01*
G01X3565006Y6901411D01*
G01X3563620Y6897254D01*
G01X3562234Y6893560D01*
G01X3559464Y6887094D01*
G01X3557616Y6883400D01*
G01X3555307Y6879244D01*
G01X3553460Y6876011D01*
G01X3548842Y6869084D01*
G01X3546071Y6865389D01*
G01X3536834Y6856153D01*
G01X3534526Y6854306D01*
G01X3532216Y6852920D01*
G01X3529446Y6851073D01*
G37*
G36*
G01X3967249Y6851073D02*
G01X3967249Y6848302D01*
G01X3899824Y6848302D01*
G01X3899824Y6853844D01*
G01X3905366Y6853844D01*
G01X3912754Y6854767D01*
G01X3915987Y6856614D01*
G01X3918758Y6859847D01*
G01X3920606Y6864466D01*
G01X3921529Y6870931D01*
G01X3921991Y6913880D01*
G01X3921644Y6943206D01*
G01X3920606Y6953596D01*
G01X3915987Y6958214D01*
G01X3913678Y6960062D01*
G01X3910446Y6962371D01*
G01X3906751Y6964680D01*
G01X3903518Y6966527D01*
G01X3899362Y6968374D01*
G01X3895667Y6969760D01*
G01X3891973Y6970684D01*
G01X3885507Y6971146D01*
G01X3879504Y6970222D01*
G01X3876271Y6968836D01*
G01X3872576Y6966527D01*
G01X3868882Y6962371D01*
G01X3866573Y6957291D01*
G01X3865187Y6952211D01*
G01X3864264Y6946669D01*
G01X3863802Y6904182D01*
G01X3864726Y6863080D01*
G01X3866573Y6859847D01*
G01X3868882Y6857538D01*
G01X3871653Y6855691D01*
G01X3877194Y6854306D01*
G01X3883660Y6853844D01*
G01X3885392Y6853151D01*
G01X3885969Y6851073D01*
G01X3885969Y6848302D01*
G01X3816696Y6848302D01*
G01X3816696Y6853844D01*
G01X3821314Y6853844D01*
G01X3827318Y6854306D01*
G01X3831013Y6855691D01*
G01X3834246Y6857538D01*
G01X3836554Y6860309D01*
G01X3838402Y6866313D01*
G01X3838864Y6909262D01*
G01X3839326Y6949440D01*
G01X3838864Y6952211D01*
G01X3834246Y6956829D01*
G01X3828704Y6961447D01*
G01X3826394Y6963294D01*
G01X3823162Y6965142D01*
G01X3818544Y6967451D01*
G01X3813926Y6969298D01*
G01X3810231Y6970222D01*
G01X3806998Y6970684D01*
G01X3803304Y6971146D01*
G01X3799609Y6970684D01*
G01X3795914Y6969760D01*
G01X3791758Y6967913D01*
G01X3788526Y6965604D01*
G01X3786678Y6963294D01*
G01X3785293Y6960524D01*
G01X3783446Y6955906D01*
G01X3782522Y6950826D01*
G01X3782060Y6947593D01*
G01X3781598Y6905106D01*
G01X3782522Y6862618D01*
G01X3784831Y6859386D01*
G01X3788064Y6856614D01*
G01X3792682Y6854767D01*
G01X3799609Y6853844D01*
G01X3803766Y6853844D01*
G01X3803766Y6848302D01*
G01X3736340Y6848302D01*
G01X3736340Y6853844D01*
G01X3740496Y6853844D01*
G01X3746500Y6854767D01*
G01X3750656Y6857076D01*
G01X3753889Y6860771D01*
G01X3755274Y6864466D01*
G01X3756198Y6869084D01*
G01X3756660Y6910647D01*
G01X3757122Y6950364D01*
G01X3758046Y6958676D01*
G01X3759431Y6962833D01*
G01X3761278Y6967913D01*
G01X3763126Y6971607D01*
G01X3765434Y6975302D01*
G01X3768206Y6978534D01*
G01X3770514Y6980844D01*
G01X3772824Y6982691D01*
G01X3775594Y6984076D01*
G01X3779751Y6985924D01*
G01X3783907Y6987309D01*
G01X3789449Y6988233D01*
G01X3795453Y6988694D01*
G01X3798686Y6988233D01*
G01X3802842Y6987309D01*
G01X3807460Y6985924D01*
G01X3811154Y6984538D01*
G01X3814387Y6983153D01*
G01X3818082Y6980844D01*
G01X3821314Y6978534D01*
G01X3823624Y6976687D01*
G01X3837478Y6962833D01*
G01X3839787Y6961447D01*
G01X3840596Y6961678D01*
G01X3841173Y6963294D01*
G01X3842558Y6966989D01*
G01X3843944Y6970222D01*
G01X3845329Y6972993D01*
G01X3847638Y6976226D01*
G01X3851333Y6979920D01*
G01X3854566Y6982229D01*
G01X3857336Y6984076D01*
G01X3861493Y6985924D01*
G01X3866111Y6987309D01*
G01X3870729Y6988233D01*
G01X3875809Y6988694D01*
G01X3879966Y6988233D01*
G01X3884122Y6987309D01*
G01X3888740Y6985924D01*
G01X3892434Y6984538D01*
G01X3895206Y6983153D01*
G01X3899824Y6980382D01*
G01X3906751Y6974840D01*
G01X3918296Y6963294D01*
G01X3920606Y6961447D01*
G01X3921644Y6964564D01*
G01X3921991Y6974840D01*
G01X3921991Y6988694D01*
G01X3925686Y6988694D01*
G01X3930766Y6987771D01*
G01X3933998Y6986386D01*
G01X3937693Y6985000D01*
G01X3941849Y6983153D01*
G01X3946467Y6981306D01*
G01X3951547Y6979458D01*
G01X3956166Y6977611D01*
G01X3960322Y6975764D01*
G01X3964940Y6973916D01*
G01X3968173Y6972069D01*
G01X3968173Y6969298D01*
G01X3967018Y6967913D01*
G01X3965402Y6967451D01*
G01X3962169Y6967913D01*
G01X3958474Y6968836D01*
G01X3954318Y6968836D01*
G01X3951086Y6966989D01*
G01X3948776Y6963294D01*
G01X3947391Y6956829D01*
G01X3946929Y6945746D01*
G01X3946467Y6937894D01*
G01X3946006Y6906953D01*
G01X3946467Y6875549D01*
G01X3947391Y6864466D01*
G01X3948776Y6861233D01*
G01X3952009Y6857538D01*
G01X3955704Y6855229D01*
G01X3959398Y6854306D01*
G01X3964478Y6853844D01*
G01X3967249Y6853844D01*
G01X3967249Y6851073D01*
G37*
G36*
G01X4081780Y6851073D02*
G01X4078547Y6849226D01*
G01X4074853Y6847840D01*
G01X4070696Y6846454D01*
G01X4063307Y6845531D01*
G01X4057304Y6845993D01*
G01X4053147Y6846916D01*
G01X4048067Y6848764D01*
G01X4043911Y6851073D01*
G01X4040216Y6853382D01*
G01X4036984Y6855691D01*
G01X4025900Y6864004D01*
G01X4021744Y6866774D01*
G01X4019896Y6867698D01*
G01X4019896Y6863542D01*
G01X4019434Y6858000D01*
G01X4018049Y6854306D01*
G01X4015740Y6851073D01*
G01X4013431Y6849226D01*
G01X4010198Y6847378D01*
G01X4005580Y6845993D01*
G01X4001886Y6845993D01*
G01X3998191Y6846916D01*
G01X3993573Y6848764D01*
G01X3989416Y6851073D01*
G01X3986646Y6852920D01*
G01X3984336Y6854767D01*
G01X3979718Y6859386D01*
G01X3977409Y6862156D01*
G01X3973714Y6867698D01*
G01X3972791Y6872778D01*
G01X3973137Y6874972D01*
G01X3974176Y6875087D01*
G01X3981104Y6868160D01*
G01X3983413Y6866313D01*
G01X3986184Y6865389D01*
G01X3989878Y6864927D01*
G01X3991841Y6865389D01*
G01X3993111Y6866774D01*
G01X3994496Y6870931D01*
G01X3995420Y6875549D01*
G01X3995711Y6901411D01*
G01X4020820Y6901411D01*
G01X4020820Y6876934D01*
G01X4023129Y6875549D01*
G01X4029594Y6870931D01*
G01X4033289Y6868622D01*
G01X4036984Y6866774D01*
G01X4041140Y6864927D01*
G01X4041140Y6864927D01*
G01X4046220Y6863542D01*
G01X4051762Y6863080D01*
G01X4054533Y6863542D01*
G01X4057304Y6864466D01*
G01X4060536Y6865851D01*
G01X4062846Y6867698D01*
G01X4065616Y6870931D01*
G01X4067926Y6874626D01*
G01X4069773Y6878782D01*
G01X4070696Y6883400D01*
G01X4071158Y6886633D01*
G01X4071158Y6891251D01*
G01X4069773Y6897254D01*
G01X4067926Y6900949D01*
G01X4065616Y6904182D01*
G01X4062846Y6907414D01*
G01X4060536Y6909724D01*
G01X4058227Y6911571D01*
G01X4055918Y6912956D01*
G01X4053147Y6914804D01*
G01X4049914Y6916651D01*
G01X4042526Y6920346D01*
G01X4032827Y6924502D01*
G01X4029133Y6925887D01*
G01X4024514Y6927734D01*
G01X4022321Y6928081D01*
G01X4021282Y6927273D01*
G01X4020820Y6901411D01*
G01X3995711Y6901411D01*
G01X3995882Y6916651D01*
G01X3996344Y6956829D01*
G01X3997267Y6964218D01*
G01X3998653Y6968374D01*
G01X4001424Y6973454D01*
G01X4005118Y6978073D01*
G01X4008351Y6980844D01*
G01X4011122Y6982229D01*
G01X4014354Y6983614D01*
G01X4018049Y6985000D01*
G01X4023591Y6986386D01*
G01X4028671Y6987309D01*
G01X4035136Y6988233D01*
G01X4042526Y6988694D01*
G01X4049914Y6988233D01*
G01X4057304Y6987309D01*
G01X4061922Y6985924D01*
G01X4067926Y6984076D01*
G01X4072544Y6981767D01*
G01X4076700Y6978996D01*
G01X4079933Y6976226D01*
G01X4082242Y6973916D01*
G01X4085013Y6970684D01*
G01X4087322Y6966989D01*
G01X4089169Y6962833D01*
G01X4090554Y6957753D01*
G01X4091016Y6952673D01*
G01X4090093Y6948054D01*
G01X4088246Y6944822D01*
G01X4085013Y6942051D01*
G01X4080394Y6940204D01*
G01X4076700Y6940204D01*
G01X4073006Y6941589D01*
G01X4069773Y6943898D01*
G01X4067926Y6946669D01*
G01X4066540Y6951287D01*
G01X4066078Y6960986D01*
G01X4065154Y6968836D01*
G01X4063307Y6971607D01*
G01X4058689Y6976226D01*
G01X4054994Y6978073D01*
G01X4050838Y6978996D01*
G01X4043911Y6979458D01*
G01X4036522Y6978534D01*
G01X4033289Y6977149D01*
G01X4029594Y6974840D01*
G01X4025900Y6970684D01*
G01X4023591Y6966066D01*
G01X4022206Y6960524D01*
G01X4021282Y6955906D01*
G01X4020820Y6946207D01*
G01X4020820Y6937894D01*
G01X4023591Y6937433D01*
G01X4028209Y6936047D01*
G01X4032827Y6934200D01*
G01X4037907Y6932353D01*
G01X4042526Y6930506D01*
G01X4046682Y6928658D01*
G01X4051300Y6926811D01*
G01X4055456Y6924964D01*
G01X4066540Y6919422D01*
G01X4070696Y6917113D01*
G01X4074853Y6914342D01*
G01X4078547Y6912033D01*
G01X4083166Y6908338D01*
G01X4085474Y6906029D01*
G01X4089169Y6901411D01*
G01X4091016Y6898640D01*
G01X4092864Y6894946D01*
G01X4094711Y6890789D01*
G01X4095634Y6886171D01*
G01X4096096Y6882014D01*
G01X4096096Y6877396D01*
G01X4095634Y6872316D01*
G01X4094711Y6868622D01*
G01X4093326Y6864927D01*
G01X4091940Y6861694D01*
G01X4090093Y6858924D01*
G01X4088246Y6856614D01*
G01X4086398Y6854767D01*
G01X4081780Y6851073D01*
G37*
G36*
G01X4202314Y6853382D02*
G01X4192154Y6848302D01*
G01X4187998Y6846916D01*
G01X4183380Y6845531D01*
G01X4172296Y6844607D01*
G01X4161674Y6845069D01*
G01X4157980Y6845993D01*
G01X4153824Y6847378D01*
G01X4150129Y6848764D01*
G01X4146434Y6850611D01*
G01X4142278Y6853382D01*
G01X4139046Y6856153D01*
G01X4134427Y6860771D01*
G01X4131656Y6864466D01*
G01X4127962Y6869084D01*
G01X4125191Y6873240D01*
G01X4123344Y6876473D01*
G01X4121496Y6880167D01*
G01X4119649Y6885247D01*
G01X4118264Y6889404D01*
G01X4116878Y6894022D01*
G01X4116878Y6898640D01*
G01X4119649Y6900026D01*
G01X4121150Y6899448D01*
G01X4121958Y6897716D01*
G01X4123344Y6894022D01*
G01X4125191Y6890327D01*
G01X4127962Y6885709D01*
G01X4130733Y6882014D01*
G01X4135351Y6877396D01*
G01X4138122Y6875087D01*
G01X4141354Y6873240D01*
G01X4145511Y6871393D01*
G01X4149667Y6870007D01*
G01X4153362Y6869084D01*
G01X4162136Y6868622D01*
G01X4170449Y6869546D01*
G01X4174606Y6870931D01*
G01X4179224Y6872778D01*
G01X4183380Y6875087D01*
G01X4186151Y6876934D01*
G01X4188460Y6878782D01*
G01X4195387Y6885709D01*
G01X4197696Y6888942D01*
G01X4200467Y6893098D01*
G01X4204624Y6901411D01*
G01X4206009Y6905567D01*
G01X4207394Y6910186D01*
G01X4208318Y6914342D01*
G01X4208780Y6918036D01*
G01X4210166Y6930506D01*
G01X4210166Y6933276D01*
G01X4115954Y6933276D01*
G01X4115954Y6937894D01*
G01X4116416Y6943898D01*
G01X4147358Y6943898D01*
G01X4147358Y6941589D01*
G01X4178300Y6941589D01*
G01X4209704Y6942051D01*
G01X4209704Y6945746D01*
G01X4208318Y6951749D01*
G01X4206471Y6957291D01*
G01X4204624Y6961447D01*
G01X4202776Y6964218D01*
G01X4200467Y6966527D01*
G01X4198620Y6968836D01*
G01X4196773Y6970684D01*
G01X4194464Y6972069D01*
G01X4191231Y6974378D01*
G01X4185689Y6976687D01*
G01X4178300Y6978073D01*
G01X4171373Y6978073D01*
G01X4166754Y6976687D01*
G01X4163060Y6974840D01*
G01X4158904Y6972069D01*
G01X4155671Y6968836D01*
G01X4153824Y6966527D01*
G01X4151514Y6963294D01*
G01X4149206Y6957753D01*
G01X4147820Y6950364D01*
G01X4147358Y6943898D01*
G01X4147358Y6943898D01*
G01X4116416Y6943898D01*
G01X4117340Y6948516D01*
G01X4118726Y6953596D01*
G01X4120111Y6957753D01*
G01X4121958Y6961909D01*
G01X4124267Y6965604D01*
G01X4126114Y6968374D01*
G01X4127962Y6970684D01*
G01X4134889Y6977611D01*
G01X4138122Y6979920D01*
G01X4142278Y6982691D01*
G01X4146434Y6984538D01*
G01X4150129Y6985924D01*
G01X4155671Y6987309D01*
G01X4160751Y6988233D01*
G01X4169526Y6988694D01*
G01X4178300Y6988233D01*
G01X4182918Y6987309D01*
G01X4187998Y6985924D01*
G01X4192616Y6984076D01*
G01X4196773Y6982229D01*
G01X4200006Y6980382D01*
G01X4202776Y6978534D01*
G01X4205086Y6976687D01*
G01X4210627Y6972069D01*
G01X4217554Y6963756D01*
G01X4219864Y6960062D01*
G01X4222173Y6955906D01*
G01X4224020Y6952211D01*
G01X4225406Y6948516D01*
G01X4226791Y6944360D01*
G01X4228176Y6939280D01*
G01X4230024Y6930044D01*
G01X4230486Y6923116D01*
G01X4231409Y6912956D01*
G01X4230947Y6907876D01*
G01X4230024Y6898640D01*
G01X4229100Y6894022D01*
G01X4227714Y6888942D01*
G01X4224944Y6880629D01*
G01X4220326Y6872316D01*
G01X4217554Y6868160D01*
G01X4214784Y6864466D01*
G01X4210166Y6859847D01*
G01X4204624Y6855229D01*
G01X4202314Y6853382D01*
G37*
G36*
G01X4357024Y6851073D02*
G01X4357024Y6848302D01*
G01X4271126Y6848302D01*
G01X4271126Y6853844D01*
G01X4277591Y6853844D01*
G01X4285442Y6854306D01*
G01X4288674Y6855229D01*
G01X4292831Y6857538D01*
G01X4296064Y6860771D01*
G01X4297911Y6864927D01*
G01X4298834Y6870007D01*
G01X4299296Y6873702D01*
G01X4299758Y6956367D01*
G01X4299758Y7037647D01*
G01X4281286Y7037647D01*
G01X4261427Y7037186D01*
G01X4257733Y7036262D01*
G01X4253576Y7034876D01*
G01X4249420Y7032567D01*
G01X4246187Y7029796D01*
G01X4242493Y7026102D01*
G01X4240184Y7022869D01*
G01X4238336Y7019174D01*
G01X4236951Y7015480D01*
G01X4236027Y7011786D01*
G01X4235566Y7008553D01*
G01X4234642Y7004858D01*
G01X4233603Y7003126D01*
G01X4231409Y7002549D01*
G01X4228638Y7002549D01*
G01X4228638Y7005782D01*
G01X4229100Y7010400D01*
G01X4230024Y7029796D01*
G01X4230486Y7039956D01*
G01X4230486Y7048731D01*
G01X4232794Y7049193D01*
G01X4315460Y7049654D01*
G01X4395816Y7049654D01*
G01X4395816Y7044574D01*
G01X4396278Y7038109D01*
G01X4397202Y7018713D01*
G01X4397664Y7009938D01*
G01X4397664Y7002549D01*
G01X4395354Y7002549D01*
G01X4393507Y7003126D01*
G01X4392584Y7004858D01*
G01X4391660Y7010400D01*
G01X4390274Y7015480D01*
G01X4388889Y7019174D01*
G01X4387504Y7022407D01*
G01X4385194Y7026102D01*
G01X4382424Y7029334D01*
G01X4380114Y7031182D01*
G01X4376882Y7033491D01*
G01X4371802Y7035800D01*
G01X4367184Y7036724D01*
G01X4363951Y7037186D01*
G01X4345478Y7037647D01*
G01X4328391Y7037647D01*
G01X4328391Y6954982D01*
G01X4328853Y6870931D01*
G01X4329776Y6866313D01*
G01X4332086Y6860771D01*
G01X4336242Y6857538D01*
G01X4340398Y6855691D01*
G01X4346402Y6854306D01*
G01X4353791Y6853844D01*
G01X4357024Y6853844D01*
G01X4357024Y6851073D01*
G37*
G04 Text End*
G54D10*

M02*

