G04 Layer: TopSolderMaskLayer*
G04 EasyEDA Pro v2.2.40.8, 2025-10-27 13:57:15*
G04 Gerber Generator version 0.3*
G04 Scale: 100 percent, Rotated: No, Reflected: No*
G04 Dimensions in millimeters*
G04 Leading zeros omitted, absolute positions, 4 integers and 5 decimals*
G04 Generated by one-click*
%FSLAX45Y45*%
%MOMM*%
%AMRect*21,1,$1,$2,0,0,$3*%
%AMRoundRect*1,1,$1,$2,$3*1,1,$1,$4,$5*1,1,$1,0-$2,0-$3*1,1,$1,0-$4,0-$5*20,1,$1,$2,$3,$4,$5,0*20,1,$1,$4,$5,0-$2,0-$3,0*20,1,$1,0-$2,0-$3,0-$4,0-$5,0*20,1,$1,0-$4,0-$5,$2,$3,0*4,1,4,$2,$3,$4,$5,0-$2,0-$3,0-$4,0-$5,$2,$3,0*%
%ADD10Rect,1.0X0.75X45.0*%
%ADD11Rect,0.75X1.0X45.0*%
%ADD12R,1.10007X0.92989*%
%ADD13RoundRect,0.09224X-0.45464X1.00468X0.45464X1.00468*%
%ADD14RoundRect,0.09131X-0.40519X0.40519X0.40519X0.40519*%
%ADD15RoundRect,0.04437X-0.1532X0.57827X0.1532X0.57827*%
%ADD16R,0.59995X1.15011*%
%ADD17RoundRect,0.09224X-0.45464X0.45464X0.45464X0.45464*%
%ADD18RoundRect,0.17037X-1.06485X0.4898X1.06485X0.4898*%
%ADD19RoundRect,0.0937X-0.47946X1.05451X0.47946X1.05451*%
%ADD20RoundRect,0.09265X-0.47946X1.05451X0.47946X1.05451*%
%ADD21RoundRect,0.09804X-1.35179X1.35179X1.35179X1.35179*%
%ADD22O,0.38151X0.9017*%
%ADD23O,0.9017X0.38151*%
%ADD24RoundRect,0.08789X-0.28181X0.50685X0.28181X0.50685*%
%ADD25RoundRect,0.09869X-1.67646X1.67646X1.67646X1.67646*%
%ADD26RoundRect,0.08023X-0.15064X0.46318X0.15064X0.46318*%
%ADD27RoundRect,0.08023X-0.46318X0.15064X0.46318X0.15064*%
%ADD28RoundRect,0.09763X-1.65197X1.20201X1.65197X1.20201*%
%ADD29RoundRect,0.16217X-0.32049X0.62046X0.32049X0.62046*%
%ADD30RoundRect,0.09138X-0.43716X0.40834X0.43716X0.40834*%
%ADD31RoundRect,0.09139X-0.43691X0.40897X0.43691X0.40897*%
%ADD32RoundRect,0.09139X-0.40897X0.43691X0.40897X0.43691*%
%ADD33RoundRect,0.09017X-0.35573X0.63068X0.35573X0.63068*%
%ADD34RoundRect,0.08294X-0.39935X0.18434X0.39935X0.18434*%
%ADD35RoundRect,0.18182X-1.00909X0.90914X1.00909X0.90914*%
%ADD36RoundRect,0.09131X-0.45511X0.40519X0.45511X0.40519*%
%ADD37RoundRect,0.09131X-0.40519X0.45511X0.40519X0.45511*%
%ADD38C,0.85319*%
%ADD39C,1.05308*%
%ADD40RoundRect,0.17417X-0.73895X0.0X0.0X0.73895*%
%ADD41RoundRect,0.18182X-1.50909X0.90914X1.50909X0.90914*%
%ADD42O,1.2X2.30007*%
%ADD43O,1.2X2.0001*%
%ADD44RoundRect,0.14004X-0.79358X0.79358X0.79358X0.79358*%
%ADD45C,1.6764*%
G75*


G04 Pad Start*
G54D10*
G01X2343506Y8795080D03*
G01X2177694Y8629269D03*
G54D11*
G01X2190394Y5696306D03*
G01X2356206Y5530469D03*
G54D10*
G01X5441569Y5517769D03*
G01X5607406Y5683606D03*
G54D11*
G01X5607406Y8616569D03*
G01X5441569Y8782406D03*
G54D12*
G01X3224784Y9116847D03*
G01X3224784Y9343847D03*
G01X2464791Y9343847D03*
G01X2464791Y9116847D03*
G54D13*
G01X2619807Y9045702D03*
G01X2769794Y9045702D03*
G01X3069793Y9045702D03*
G54D14*
G01X5270856Y9140241D03*
G01X5270144Y9300134D03*
G01X4504741Y9308719D03*
G01X4664659Y9309430D03*
G01X4504741Y9143619D03*
G01X4664659Y9144330D03*
G54D15*
G01X4073906Y8648751D03*
G01X4023893Y8648751D03*
G01X3973906Y8648751D03*
G01X3923894Y8648751D03*
G01X3873906Y8648751D03*
G01X3823894Y8648751D03*
G01X3773907Y8648751D03*
G01X3723894Y8648751D03*
G54D16*
G01X3658895Y8648751D03*
G01X3578911Y8648751D03*
G01X4138905Y8648751D03*
G01X4218915Y8648751D03*
G54D17*
G01X3902431Y5951449D03*
G01X4042435Y5951449D03*
G01X4182440Y5951449D03*
G01X4182440Y5671439D03*
G01X4042435Y5671439D03*
G01X3902431Y5671439D03*
G01X3902431Y5811444D03*
G01X4182440Y5811444D03*
G01X4042461Y5811444D03*
G54D18*
G01X2992450Y5043348D03*
G01X2992450Y5170348D03*
G01X2992450Y5297348D03*
G01X2992450Y5424348D03*
G01X2992450Y5551348D03*
G01X2992450Y5678348D03*
G01X2992450Y5805348D03*
G01X2992450Y5932348D03*
G01X2992450Y6059348D03*
G01X2992450Y6186348D03*
G01X2992450Y6313348D03*
G01X2992450Y6440348D03*
G01X2992450Y6567348D03*
G01X2992450Y6694348D03*
G54D20*
G01X3320923Y6843852D03*
G01X3447923Y6843852D03*
G01X3574923Y6843852D03*
G01X3701923Y6843852D03*
G01X3828923Y6843852D03*
G01X3955923Y6843852D03*
G01X4082923Y6843852D03*
G01X4209923Y6843852D03*
G01X4336923Y6843852D03*
G01X4463923Y6843852D03*
G54D18*
G01X4792447Y6694348D03*
G01X4792447Y6567348D03*
G01X4792447Y6440348D03*
G01X4792447Y6313348D03*
G01X4792447Y6186348D03*
G01X4792447Y6059348D03*
G01X4792447Y5932348D03*
G01X4792447Y5805348D03*
G01X4792447Y5678348D03*
G01X4792447Y5551348D03*
G01X4792447Y5424348D03*
G01X4792447Y5297348D03*
G01X4792447Y5170348D03*
G01X4792447Y5043348D03*
G54D21*
G01X3879190Y7418045D03*
G54D22*
G01X4004183Y7216800D03*
G01X3954196Y7216800D03*
G01X3904183Y7216800D03*
G01X3854196Y7216800D03*
G01X3804183Y7216800D03*
G01X3754196Y7216800D03*
G54D23*
G01X3679190Y7292594D03*
G01X3679190Y7341794D03*
G01X3679190Y7391806D03*
G01X3679190Y7441794D03*
G01X3679190Y7491806D03*
G01X3679190Y7541793D03*
G54D22*
G01X3754196Y7616800D03*
G01X3804183Y7616800D03*
G01X3854196Y7616800D03*
G01X3904183Y7616800D03*
G01X3954196Y7616800D03*
G01X4004183Y7616800D03*
G54D23*
G01X4079189Y7541793D03*
G01X4079189Y7491806D03*
G01X4079189Y7441794D03*
G01X4079189Y7391806D03*
G01X4079189Y7341794D03*
G01X4079189Y7291807D03*
G54D24*
G01X4705096Y7924927D03*
G01X4610100Y7924927D03*
G01X4515079Y7924927D03*
G01X4515079Y7670648D03*
G01X4705096Y7670648D03*
G54D25*
G01X3035300Y7962875D03*
G54D26*
G01X2885313Y8200619D03*
G01X2935300Y8200619D03*
G01X2985313Y8200619D03*
G01X3035300Y8200619D03*
G01X3085313Y8200619D03*
G01X3135300Y8200619D03*
G01X3185312Y8200619D03*
G54D27*
G01X3273044Y8112862D03*
G01X3273044Y8062874D03*
G01X3273044Y8012862D03*
G01X3273044Y7962875D03*
G01X3273044Y7912862D03*
G01X3273044Y7862875D03*
G01X3273044Y7812862D03*
G54D26*
G01X3185312Y7725131D03*
G01X3135300Y7725131D03*
G01X3085313Y7725131D03*
G01X3035300Y7725131D03*
G01X2985313Y7725131D03*
G01X2935300Y7725131D03*
G01X2885313Y7725131D03*
G54D27*
G01X2797556Y7812862D03*
G01X2797556Y7862875D03*
G01X2797556Y7912862D03*
G01X2797556Y7962875D03*
G01X2797556Y8012862D03*
G01X2797556Y8062874D03*
G01X2797556Y8112862D03*
G54D28*
G01X4699000Y8648700D03*
G54D29*
G01X4508500Y8939530D03*
G01X4635500Y8939530D03*
G01X4762500Y8939530D03*
G01X4889500Y8939530D03*
G01X4889500Y8357870D03*
G01X4762500Y8357870D03*
G01X4635500Y8357870D03*
G01X4508500Y8357870D03*
G54D30*
G01X2336800Y7949311D03*
G54D31*
G01X2336800Y7798664D03*
G54D32*
G01X1753464Y6667475D03*
G01X1904111Y6667475D03*
G01X1753464Y7048475D03*
G01X1904111Y7048475D03*
G01X1753464Y7416775D03*
G01X1904111Y7416775D03*
G01X1904111Y7912075D03*
G01X1753464Y7912075D03*
G01X1766164Y6400775D03*
G01X1916811Y6400775D03*
G01X5868264Y6400775D03*
G01X6018911Y6400775D03*
G01X6031611Y7924775D03*
G01X5880964Y7924775D03*
G01X2539111Y7480275D03*
G01X2388464Y7480275D03*
G01X2972664Y8458200D03*
G01X3123336Y8458200D03*
G01X3186811Y7061175D03*
G01X3036164Y7061175D03*
G01X5030064Y5524500D03*
G01X5180711Y5524500D03*
G01X4344264Y7099275D03*
G01X4494911Y7099275D03*
G01X3123336Y8813800D03*
G01X2972664Y8813800D03*
G01X5093564Y7683475D03*
G01X5244211Y7683475D03*
G01X5244211Y7518375D03*
G01X5093564Y7518375D03*
G01X4990236Y9309100D03*
G01X4839564Y9309100D03*
G01X4509364Y8178775D03*
G01X4660011Y8178775D03*
G54D30*
G01X2489200Y7949311D03*
G54D31*
G01X2489200Y7798664D03*
G54D32*
G01X4990236Y9144000D03*
G01X4839564Y9144000D03*
G01X3745611Y8064475D03*
G01X3594964Y8064475D03*
G01X2972664Y8636000D03*
G01X3123336Y8636000D03*
G01X4139311Y7886675D03*
G01X3988664Y7886675D03*
G01X4344264Y7264375D03*
G01X4494911Y7264375D03*
G01X5131664Y8902675D03*
G01X5282311Y8902675D03*
G54D33*
G01X1828800Y8291474D03*
G01X1923796Y8091475D03*
G01X1733804Y8091475D03*
G01X1841500Y6021375D03*
G01X1746504Y6221374D03*
G01X1936496Y6221374D03*
G01X5943600Y6034075D03*
G01X5848604Y6234074D03*
G01X6038596Y6234074D03*
G01X5956275Y8304174D03*
G01X6051271Y8104175D03*
G01X5861304Y8104175D03*
G54D34*
G01X2809291Y7351776D03*
G01X2809291Y7416775D03*
G01X2809291Y7481773D03*
G01X3007284Y7481773D03*
G01X3007284Y7416775D03*
G01X3007284Y7351776D03*
G54D33*
G01X5194300Y8558174D03*
G01X5289296Y8358175D03*
G01X5099304Y8358175D03*
G54D14*
G01X1908734Y6832930D03*
G01X1748841Y6832244D03*
G01X1908734Y7213930D03*
G01X1748841Y7213244D03*
G01X1908734Y7582230D03*
G01X1748841Y7581544D03*
G54D35*
G01X4060800Y8343875D03*
G01X3660800Y8343875D03*
G54D36*
G01X2082800Y8248777D03*
G01X2082800Y8108772D03*
G01X2108200Y6064098D03*
G01X2108200Y6204077D03*
G01X5664200Y6064098D03*
G01X5664200Y6204077D03*
G01X5689600Y8248777D03*
G01X5689600Y8108772D03*
G54D37*
G01X2571902Y8458175D03*
G01X2431898Y8458175D03*
G01X2431898Y8280375D03*
G01X2571902Y8280375D03*
G01X2533802Y7315175D03*
G01X2393798Y7315175D03*
G01X5035398Y5003800D03*
G01X5175377Y5003800D03*
G01X5175377Y5359400D03*
G01X5035398Y5359400D03*
G01X3511702Y7378675D03*
G01X3371698Y7378675D03*
G01X3511702Y7569175D03*
G01X3371698Y7569175D03*
G01X5238877Y7340575D03*
G01X5098898Y7340575D03*
G01X5098898Y7848575D03*
G01X5238877Y7848575D03*
G01X4349598Y7454875D03*
G01X4489602Y7454875D03*
G01X5238877Y8026375D03*
G01X5098898Y8026375D03*
G01X3600298Y7886675D03*
G01X3740302Y7886675D03*
G01X5175377Y5181600D03*
G01X5035398Y5181600D03*
G01X4134002Y8064475D03*
G01X3993998Y8064475D03*
G54D38*
G01X4187901Y8756193D03*
G01X3609899Y8756193D03*
G54D39*
G01X2994812Y9230309D03*
G01X2694788Y9230309D03*
G54D40*
G01X2139696Y9010396D03*
G01X2051304Y8922004D03*
G01X2051304Y5390896D03*
G01X2139696Y5302504D03*
G01X5658079Y5302504D03*
G01X5746496Y5390896D03*
G01X5733796Y8922004D03*
G01X5645404Y9010396D03*
G54D41*
G01X5880100Y7025107D03*
G01X5880100Y7275093D03*
G54D42*
G01X4330903Y8706256D03*
G01X3466897Y8706256D03*
G54D43*
G01X4330903Y9121242D03*
G01X3466897Y9121242D03*
G54D44*
G01X5168900Y7035775D03*
G54D45*
G01X5168900Y6781775D03*
G01X5168900Y6527775D03*
G01X5168900Y6273775D03*
G01X5168900Y6019775D03*
G01X5168900Y5765775D03*
G54D44*
G01X2628900Y7035775D03*
G54D45*
G01X2628900Y6781775D03*
G01X2628900Y6527775D03*
G01X2628900Y6273775D03*
G01X2628900Y6019775D03*
G01X2628900Y5765775D03*
G04 Pad End*

M02*

